<svg id="Layer_1" data-name="Layer 1" xmlns="http://www.w3.org/2000/svg" viewBox="0 0 685.37 275.85"><defs><style>.cls-1{fill:#2b7ec2;}.cls-2{fill:#f39200;}</style></defs><path class="cls-1" d="M134.29,356.49,145.59,303,113,356.49H97.53L87,303,75.7,356.49H59.32l18.53-88H99.18l11.49,61.2,38-61.2h20.5l-18.6,88Z" transform="translate(-59.32 -174.46)"/><path class="cls-1" d="M175.93,356.49q-5.58,0-8-1.87c-1.61-1.25-2.41-3.22-2.41-5.93a27.64,27.64,0,0,1,.64-5.08l8.44-40.06q1.46-6.6,4.76-9.71t10.47-3.11h44.44q4.95,0,7.11,1.87a7,7,0,0,1,2.16,5.62A21.4,21.4,0,0,1,243,303l-5.46,25.9h-43.8L195.93,318h26.53l2-8.83a9.15,9.15,0,0,0,.13-1.71,1.6,1.6,0,0,0-.6-1.43,4,4,0,0,0-2.13-.41H195.67a4.4,4.4,0,0,0-3,.73,6.44,6.44,0,0,0-1.33,2.95l-6.1,28.31c-.08.42-.14.79-.19,1.11a6.92,6.92,0,0,0-.06.86,1.58,1.58,0,0,0,.67,1.52,4.91,4.91,0,0,0,2.31.38h44.38l-3.18,15Z" transform="translate(-59.32 -174.46)"/><path class="cls-1" d="M240.17,384l3.37-15.74h43.93a4.71,4.71,0,0,0,3.08-.76,5.78,5.78,0,0,0,1.36-3l12.32-58.09H275.91a4.59,4.59,0,0,0-3,.76,5.41,5.41,0,0,0-1.27,2.86l-6,28.06a7.07,7.07,0,0,0-.13,1.46c0,1.39,1,2.09,3,2.09h21.83l-3.11,14.79H256q-5.46,0-7.87-1.87c-1.61-1.25-2.41-3.22-2.41-5.93a27.64,27.64,0,0,1,.64-5.08l8.44-40.06q1.46-6.6,4.76-9.71T270,290.73h55.86l-17.14,80.43q-1.4,6.66-4.73,9.77T293.43,384Z" transform="translate(-59.32 -174.46)"/><path class="cls-1" d="M335.71,356.49q-4.95,0-7.17-1.87t-2.22-5.68a25.28,25.28,0,0,1,.63-4.82l3.3-15.56a32.57,32.57,0,0,1,1.81-6.12,11.66,11.66,0,0,1,2.6-3.91,8.57,8.57,0,0,1,3.75-2,21.62,21.62,0,0,1,5.36-.57h33.39l-2.34,11.17H350.88a4,4,0,0,0-2.57.67,4.6,4.6,0,0,0-1.17,2.7l-1.46,6.92c-.09.42-.15.76-.19,1a5.35,5.35,0,0,0-.07.83c0,1.1.83,1.65,2.48,1.65h30.41l6.92-32.25a6.36,6.36,0,0,0,.12-1.4,2.06,2.06,0,0,0-.66-1.65,3.89,3.89,0,0,0-2.45-.57H337.62l3-14.28h53.83q5.71,0,8.06,1.87t2.35,5.94a28.25,28.25,0,0,1-.63,5L393,356.49Z" transform="translate(-59.32 -174.46)"/><path class="cls-2" d="M406.37,356.49l3.17-15.1h45.07a4.53,4.53,0,0,0,2.83-.64,4.58,4.58,0,0,0,1.11-2.47l1.39-6.48a3.36,3.36,0,0,0,.13-1.08c0-1.1-.87-1.65-2.6-1.65H422.24q-4.38,0-6.42-1.74a6,6,0,0,1-2-4.8,12.51,12.51,0,0,1,.38-2.85l3.69-17.53q1.14-5.83,4.41-8.63t10.12-2.79h54.34l-3.11,14.66H438.74a4.47,4.47,0,0,0-2.95.8,4.6,4.6,0,0,0-1.3,2.69l-1.21,5.46a4.79,4.79,0,0,0-.13,1.21c0,1.4.91,2.09,2.73,2.09h35.68c3,0,5.18.61,6.54,1.81a6.14,6.14,0,0,1,2,4.8c0,.42,0,.85-.06,1.3s-.11.88-.19,1.3l-3.94,18.22q-1.28,5.83-4.54,8.63t-10.12,2.79Z" transform="translate(-59.32 -174.46)"/><path class="cls-2" d="M487.68,356.49l13.91-65.76H519.8l-14,65.76Zm15.56-73.57,4.19-19.74h18.34l-4.19,19.74Z" transform="translate(-59.32 -174.46)"/><path class="cls-2" d="M532.25,356.49c-3.64,0-6.27-.62-7.87-1.87S522,351.4,522,348.69a27.64,27.64,0,0,1,.64-5.08l15.11-71.23h18.22L552,290.73h15.87l-3,14.28H549l-7.11,33.65a9.26,9.26,0,0,0-.32,1.71c0,1.23,1,1.84,2.92,1.84h11.93l-3,14.28Z" transform="translate(-59.32 -174.46)"/><path class="cls-2" d="M575.92,356.49q-5.58,0-8-1.87c-1.61-1.25-2.41-3.22-2.41-5.93a27.64,27.64,0,0,1,.64-5.08l8.44-40.06q1.45-6.6,4.76-9.71t10.47-3.11h44.44q4.95,0,7.11,1.87a7,7,0,0,1,2.16,5.62A21.4,21.4,0,0,1,643,303l-5.46,25.9H593.7L595.92,318h26.53l2-8.83a10.09,10.09,0,0,0,.13-1.71,1.6,1.6,0,0,0-.6-1.43,4,4,0,0,0-2.13-.41H595.66a4.4,4.4,0,0,0-3,.73,6.44,6.44,0,0,0-1.33,2.95l-6.1,28.31c-.08.42-.15.79-.19,1.11a6.92,6.92,0,0,0-.06.86,1.58,1.58,0,0,0,.67,1.52,4.91,4.91,0,0,0,2.31.38h44.38l-3.18,15Z" transform="translate(-59.32 -174.46)"/><circle class="cls-1" cx="388.07" cy="67.8" r="20.61"/><circle class="cls-2" cx="411.07" cy="13.19" r="13.19"/><circle class="cls-2" cx="437.45" cy="48.68" r="9.12"/><path class="cls-1" d="M533.5,256.75c6-4.69,12.12-9.16,18.32-13.57,3.14-2.15,6.28-4.3,9.46-6.4s6.37-4.17,9.62-6.15a377,377,0,0,1,40.26-21.79l2.6-1.21,2.64-1.14,5.27-2.28c3.56-1.42,7.1-2.9,10.71-4.2,7.19-2.68,14.51-5.1,22-7.09a171.12,171.12,0,0,1,22.8-4.61,110.58,110.58,0,0,1,23.61-.74c2,.2,4,.35,6,.74l3,.51,3,.74a58.43,58.43,0,0,1,5.91,1.85c1,.35,1.92.83,2.89,1.24a22.73,22.73,0,0,1,2.84,1.41l2.77,1.6c.88.6,1.74,1.27,2.61,1.9.43.33.87.64,1.28,1l1.2,1.11c.77.76,1.62,1.46,2.33,2.29l2.09,2.52a10.49,10.49,0,0,1,1,1.32c.31.45.63.89.91,1.36a39.59,39.59,0,0,1,3,5.83,43.62,43.62,0,0,1,2.94,12.48,57.88,57.88,0,0,1-.27,12.43A95.53,95.53,0,0,1,738,261.12a155.6,155.6,0,0,1-10.4,21.12,229.7,229.7,0,0,1-12.8,19.5,324.17,324.17,0,0,1-30.06,35.2,442,442,0,0,1-71.2,58.32,450.66,450.66,0,0,1-39.68,23.36c-6.83,3.53-13.73,6.92-20.76,10s-14.18,6-21.42,8.59-14.6,4.95-22.06,6.94a187.37,187.37,0,0,1-22.73,4.7,130.46,130.46,0,0,1-23.32,1.35A88,88,0,0,1,451.84,449a59.14,59.14,0,0,1-11.5-3.17,49.3,49.3,0,0,1-5.47-2.55,42.19,42.19,0,0,1-5.08-3.32,35.74,35.74,0,0,1-4.51-4.1,29.2,29.2,0,0,1-3.7-4.83,33.64,33.64,0,0,1-4.62-11.1,22.81,22.81,0,0,1-.57-2.92c-.13-1-.29-2-.37-2.95a50.39,50.39,0,0,1-.08-5.89c0-2,.31-3.89.5-5.82.14-1,.33-1.91.5-2.86s.33-1.91.58-2.84l.68-2.81c.22-.93.54-1.84.8-2.76.52-1.85,1.17-3.66,1.83-5.45a129,129,0,0,1,10-20.55,135.93,135.93,0,0,0-8.33,21.09l-.78,2.71c-.27.9-.44,1.82-.67,2.73s-.46,1.82-.62,2.75l-.49,2.76c-.18.91-.28,1.84-.38,2.77s-.23,1.84-.31,2.77c-.06,1.85-.24,3.7-.13,5.54a49.77,49.77,0,0,0,.41,5.47,40.77,40.77,0,0,0,1.16,5.31,29.57,29.57,0,0,0,4.57,9.59c4.06,5.82,10.26,9.8,17,12a67,67,0,0,0,21.45,3.12,124.12,124.12,0,0,0,22-2.18A229.7,229.7,0,0,0,528.57,429a407.47,407.47,0,0,0,79-42.61c12.39-8.46,24.44-17.44,36-27A420.8,420.8,0,0,0,676.65,329a318.77,318.77,0,0,0,29.15-33.89c8.82-11.92,16.66-24.6,22.28-38a84.76,84.76,0,0,0,5.9-20.54c1-6.91.67-13.87-1.65-19.93a31.6,31.6,0,0,0-2.13-4.33c-.2-.35-.44-.67-.65-1a8.55,8.55,0,0,0-.7-1l-1.51-1.89c-.5-.63-1.14-1.13-1.7-1.72l-.87-.85c-.3-.27-.64-.5-1-.75-.66-.49-1.29-1-2-1.49l-2.12-1.31a16.28,16.28,0,0,0-2.23-1.18c-.77-.35-1.5-.77-2.3-1.08a49.57,49.57,0,0,0-4.9-1.68l-2.52-.71-2.6-.52c-1.72-.4-3.51-.57-5.29-.81a102.72,102.72,0,0,0-21.82.07,187.61,187.61,0,0,0-21.93,3.69c-7.28,1.62-14.49,3.69-21.62,6-3.58,1.13-7.1,2.43-10.64,3.69s-7,2.65-10.51,4.1c-7,2.78-13.87,5.91-20.71,9.11-3.38,1.68-6.81,3.27-10.14,5l-5,2.59-5,2.68C559.14,240.5,546.21,248.42,533.5,256.75Z" transform="translate(-59.32 -174.46)"/></svg>