<svg xmlns="http://www.w3.org/2000/svg" width="30" height="26" viewBox="0 0 30 26">
  <path id="Path_23442" data-name="Path 23442" d="M831.13,192.447c.543-.9,1.039-1.794,1.6-2.645a34.075,34.075,0,0,1,6.683-7.262,50.914,50.914,0,0,1,8.881-5.883c.286-.15.586-.253.834-.015a.926.926,0,0,1,.249.594.7.7,0,0,1-.271.457,47.327,47.327,0,0,0-9.152,10.362,45.2,45.2,0,0,0-6.174,13.715c-.015.053-.036.1-.047.157a.661.661,0,0,1-.507.551.7.7,0,0,1-.709-.261l-2.655-2.824q-5.064-5.382-10.125-10.765l-.16-.169a.629.629,0,0,1-.141-.728.648.648,0,0,1,.644-.389c.523,0,1.049,0,1.571,0,1.494,0,2.988.005,4.482,0a.961.961,0,0,1,.785.351c1.3,1.476,2.6,2.945,3.9,4.417C830.927,192.222,831.031,192.336,831.13,192.447Z" transform="translate(-819.38 -176.5)" fill="#4ac816"/>
</svg>
